<svg width="60" height="42" viewBox="0 0 60 42" fill="none" xmlns="http://www.w3.org/2000/svg">
<path d="M28.2 0V42H31.7586V0H28.2Z" fill="#FFF9F2"/>
<path d="M9.8266 10.2981C3.5586 10.2981 0 14.989 0 21.0952C0 27.2824 3.59904 31.8519 9.58397 31.8519C15.9328 31.8519 19.3701 27.0397 19.3701 21.0144C19.3701 14.5846 15.6093 10.2981 9.8266 10.2981ZM9.66485 13.5736C13.3043 13.5736 15.3263 16.5257 15.3263 21.0952C15.3263 25.6244 13.3043 28.5764 9.74573 28.5764C6.22756 28.5764 4.08431 25.4626 4.08431 21.0548C4.08431 16.4448 6.02537 13.5736 9.66485 13.5736Z" fill="#FFF9F2"/>
<path d="M50.4564 10.2981C44.1884 10.2981 40.6298 14.989 40.6298 21.0952C40.6298 27.2824 44.2289 31.8519 50.2138 31.8519C56.5627 31.8519 60 27.0397 60 21.0144C60 14.5846 56.2392 10.2981 50.4564 10.2981ZM50.2947 13.5736C53.9342 13.5736 55.9561 16.5257 55.9561 21.0952C55.9561 25.6244 53.9342 28.5764 50.3756 28.5764C46.8574 28.5764 44.7141 25.4626 44.7141 21.0548C44.7141 16.4448 46.6552 13.5736 50.2947 13.5736Z" fill="#FFF9F2"/>
</svg>
